<svg id="Flat" enable-background="new 0 0 512 512" height="512" viewBox="0 0 512 512" width="512" xmlns="http://www.w3.org/2000/svg"><g><path d="m395.0297852 220.1193848c-1.7805176-7.1225586-8.1802979-12.1193848-15.5222168-12.1193848h-11.5075684v40l-16 40 7.029541 7.0292969c9.3725586 9.3728027 24.5683594 9.3728027 33.940918 0h.0001221c4.5008544-4.5007324 7.0294189-10.6052246 7.0294189-16.970459v-38.0588379z" fill="#eaaa94"/><path d="m312 208v32l24 8v96l31.2221985 17.8412476c14.1190186 8.0680237 19.9419556 25.4424133 13.5361938 40.3891907l-12.7583923 29.7695617 19.3590088 12.9060059c2.8994446 1.9329528 4.6409912 5.1871032 4.6409912 8.6717834v.0000305c0 5.756012-4.6661682 10.4221802-10.4221802 10.4221802h-32.3026733c-7.3316651 0-13.2751465-5.9434814-13.2751465-13.2751465v-1.6261597c0-.7312012.0604248-1.4611816.1806335-2.1824341l7.8193665-46.9162597-40-16 1.3725891 1.3725891c12.4967651 12.4967651 12.4967651 32.7580566 0 45.2548218l-25.3725891 25.3725891s8.0012207 8.0012207 12.6873779 12.6851807c2.1238404 2.1228637 3.3126221 4.9978637 3.3126221 8.045166v.1779785c0 6.1317444-4.9716187 11.1053467-11.103363 11.1036987l-31.6214752-.0084839c-7.3322449-.0019531-13.2751618-5.9464416-13.2751618-13.2786865v-.0000305c0-1.797821.3651733-3.5768738 1.0733643-5.2293396l22.9266357-53.4954834-43.0820923-14.3606873c-17.2695007-5.7565002-28.9179077-21.9178161-28.9179077-40.1214599v-.000061c0-11.2164612 4.455719-21.9735107 12.3869629-29.9047546l11.6130371-11.6130372 8-32 16-64v-16z" fill="#fad6c6"/><g><path d="m312 208v32l24 8v96s-24 16-48 16c-56 0-72-40-72-40l5.6300049-22.5100098 2.3699951-9.4899902.0100098-.0700684 1.2099609-6.0300293 14.7800293-49.8999023v-24z" fill="#fce82b"/><path d="m241.0733643 469.4956055c-.708191 1.6523437-1.0733643 3.4313965-1.0733643 5.229248 0 7.3322754 5.9429321 13.2766113 13.2751465 13.2785645l31.621582.0085449c6.1315918.001709 11.1032715-4.9719238 11.1032715-11.1037598v-.1777344c0-3.0473633-1.1887207-5.9223633-3.3126221-8.0454102-4.6861572-4.6838378-12.6873779-12.6850585-12.6873779-12.6850585h-33.1428833z" fill="#f48da1"/><path d="m387.3590088 444.9060059-19.3590088-12.9060059h-29.333374l-2.4859619 14.9162598c-.1202393.7211914-.1806641 1.4511718-.1806641 2.182373v1.6262207c0 7.3317871 5.9434814 13.2751465 13.2751465 13.2751465h32.3027344c5.7558593 0 10.4221191-4.6662598 10.4221191-10.4221191v-.0002441c0-3.4846192-1.7415771-6.7387696-4.6409912-8.6716309z" fill="#f48da1"/><path d="m380.7583008 402.2304688c6.4057617-14.9467773.5830078-32.3212891-13.5361328-40.3891602l-31.222168-17.8413086s-24 16-48 16c-56 0-72-40-72-40l-11.6130371 11.6130371c-7.9312134 7.9311524-12.3869629 18.6882324-12.3869629 29.9047852 0 18.2036133 11.6484375 34.3649902 28.9179077 40.1213379l43.0820923 14.3608398-6.8571777 16h46.8571777l1.3725586-1.3725586c12.4968262-12.4968262 12.4968262-32.7580566 0-45.2548828l-1.3725586-1.3725586 40 16-1.333252 8h35.6188965z" fill="#40c6f3"/><path d="m240 208h72v48h-72z" fill="#eaaa94"/></g><g><g><path d="m216 80-28.4615326-27.7157593c-15.4827271-15.6209526-40.5852051-15.6209526-56.0679474.0000038l-.0000458.0000381c-7.4350662 7.5014496-11.6120453 17.6755943-11.6120453 28.2842445v32.8040771c0 14.4880753-5.7044449 28.3827667-15.8584137 38.6273804l-.0000152.0000154h25.1481018c14.3598785 0 28.1316223-5.7553711 38.2855988-15.9999847l.0000152-.0000153h48.5662842z" fill="#5b0b3c"/></g><g><path d="m208 160h-20.0000153c-11.0456848 0-19.9999847-8.9542999-19.9999847-19.9999847v-.0000305c0-11.0456849 8.9542999-19.9999848 19.9999847-19.9999848h20.0000153z" fill="#eaaa94"/><path d="m352 120h20.0000305c11.0456848 0 19.9999695 8.9542999 19.9999695 19.9999847v.0000305c0 11.0456849-8.9542847 19.9999848-19.9999695 19.9999848h-20.0000305z" fill="#eaaa94"/><path d="m184 120c0-9.5400391 1.3901367-18.75 3.9799805-27.4400024 4.6101074-15.4800415 13.0100098-29.3200073 24.1401367-40.4400024 17.369873-17.380005 41.369873-28.1199952 67.8798828-28.1199952s50.5100098 10.7399902 67.8798828 28.1199951c11.130127 11.1199951 19.5300293 24.9599609 24.1401367 40.4400024 2.5898438 8.6900025 3.9799805 17.8999634 3.9799805 27.4400025z" fill="#fbc6ea"/><path d="m362.0500488 112.1099854c-.0100098-.0100098-.0100098-.0100098-.0100098-.0100098-12.7800292-32.8299561-44.6899413-56.0999756-82.040039-56.0999756-37.8901367 0-70.1899414 23.9499512-82.5800781 57.5400391-3.5100098 9.4899902-5.4199219 19.75-5.4199219 30.4599609 0 48.5999756 39.3999023 88 88 88s88-39.4000244 88-88c0-11.25-2.1098633-22-5.9499512-31.8900146z" fill="#fad6c6"/><path d="m240 184c0 12.1099854-8.9799805 22.1300049-20.6499023 23.7600098-10.630127-10.1100464-18.7299805-22.8500366-23.25-37.1700439 4.3098144-6.3899537 11.619873-10.5899659 19.8999023-10.5899659 13.25 0 24 10.75 24 24z" fill="#f48da1"/><path d="m363.8999023 170.5899658c-4.5200195 14.3200073-12.619873 27.0599976-23.25 37.1700439-11.6699218-1.6300048-20.6499023-11.6500243-20.6499023-23.7600097 0-13.25 10.75-24 24-24 8.2800293 0 15.5900879 4.2000122 19.8999023 10.5899658z" fill="#f48da1"/><path d="m368 118.3983307c-6.2651978-8.1862946-14.1124268-14.7264481-22.9006348-19.2867279-9.3762817-4.8828812-19.8323975-7.518959-30.5985718-7.518959l-17.1060486-17.7963181-17.1060486 17.7963181h-25.6590881c-23.9055633-.0000001-46.5605773 10.3996963-62.6296081 28.4073562 13.2466431-37.3611145 47.7792816-64 88.2886963-64 39.9320373 0 74.047821 25.8824768 87.7113037 62.3983307z" fill="#5b0b3c"/><path d="m280 166.6279297c-8.1811523 0-15.8720703-3.1865234-21.6572266-8.9716797l11.3144531-11.3125c2.7626953 2.7626953 6.4355469 4.2841797 10.3427734 4.2841797s7.5800781-1.5214844 10.3427734-4.2841797l11.3144531 11.3125c-5.7851561 5.7851563-13.4760741 8.9716797-21.6572264 8.9716797z" fill="#e22526"/><g fill="#5b0b3c"><path d="m250.3427734 140.65625c-2.7626953-2.7626953-6.4355469-4.2841797-10.3427734-4.2841797s-7.5800781 1.5214844-10.3427734 4.2841797l-11.3144531-11.3125c5.7851563-5.7851563 13.4760742-8.9716797 21.6572266-8.9716797s15.8720703 3.1865234 21.6572266 8.9716797z"/><path d="m330.3427734 140.65625c-2.7626953-2.7626953-6.4355469-4.2841797-10.3427734-4.2841797s-7.5800781 1.5214844-10.3427734 4.2841797l-11.3144531-11.3125c5.7851563-5.7851563 13.4760742-8.9716797 21.6572266-8.9716797s15.8720703 3.1865234 21.6572266 8.9716797z"/></g></g></g><path d="m356.2799988 271.25c7.6582031 6.2765198 12.3565979 16.052002 11.6500244 26.8935242-1.0385132 15.9346008-14.0262451 28.8475647-29.9663391 29.797821-6.1784973.3683472-12.0043945-1.0145264-17.028717-3.6996155-5.2100525-2.7843322-11.0245057-4.2417297-16.9318543-4.2417297h-.0000305c-5.7876282 0-11.5490112 1.285614-16.622406 4.0707703-4.5632325 2.5050659-9.8045349 3.9292297-15.3806763 3.9292297-17.6699982 0-32-14.3299866-32-32v-48h88z" fill="#fce82b"/><path d="m272 336c-22.0561523 0-40-17.9443359-40-40h16c0 13.2333984 10.7666016 24 24 24 4.0380859 0 8.0253906-1.0175781 11.5302734-2.9423828 6.0273438-3.3085938 13.1069336-5.0576172 20.4726563-5.0576172 7.1967773 0 14.355957 1.7939453 20.7036133 5.1865234 3.8881836 2.0771484 8.3095703 3.0302734 12.7817383 2.7695313 11.8232422-.7050781 21.6884766-10.5146484 22.4589844-22.3330078.5117188-7.8574219-2.6728516-15.2148438-8.7382813-20.1855469l10.1416016-12.375c9.9580078 8.1611328 15.4018555 20.7226563 14.5625 33.6015625-1.3066406 20.0478516-17.4165039 36.0673828-37.4731445 37.2626953-7.4291992.4472656-14.7792969-1.1582031-21.2749023-4.6289063-4.0366212-2.1572265-8.5874025-3.2978515-13.1621095-3.2978515-4.6816406 0-9.0981445 1.0664063-12.7719727 3.0830078-5.8579101 3.2167969-12.5083007 4.9169922-19.230957 4.9169922z" fill="#fcc200"/><circle cx="48" cy="144" fill="#feea01" r="24"/><circle cx="128" cy="272" fill="#95d202" r="32"/><circle cx="456" cy="56" fill="#f249b4" r="32"/><circle cx="472" cy="472" fill="#f98800" r="16"/><circle cx="448" cy="296" fill="#e22526" r="16"/><circle cx="76" cy="436" fill="#aedef8" r="52"/><path d="m323.25 304.2299805-1.2299805 5.3798828c-1.2869263 5.6447449-6.9057312 9.1777954-12.5506592 7.8917542l-87.8393555-20.0116272 2.3699952-9.4899903.0100098-.0700684c-2.5200195-1.4799805-4.7999878-3.2700195-6.7800293-5.3200684l.5500488-2.4099121 7.4399414 1.6999512 64.0400391 14.5900879z" fill="#fcc200"/><g><path d="m368 208h-11.5075684c-7.3419189 0-13.7416992 4.9968262-15.5222168 12.1193848l-4.9702148 19.8806152-24 24-16.7741699-3.3549805-7.0600586 42.3608398 26.9312744 6.0808105c8.0323486 1.8137207 16.4337158-.6174316 22.2564697-6.4401855l14.6464844-14.6464843 16-40z" fill="#fad6c6"/><path d="m295.2299805 260.6499023-5.9699707 35.8400879-1.0900879 6.5200195-62.2799072-14.0700684c-.6400146-.3198242-1.2700195-.6599121-1.8800049-1.0100098-2.5200195-1.4799805-4.7999878-3.2700195-6.7800293-5.3200684-1.6799927-1.6999512-3.1399536-3.579834-4.3899536-5.5998535-3.1100464-5.0100096-4.8400269-10.8801268-4.8400269-17.0100096 0-12.2600098 6.9299927-23.4599609 17.8900146-28.9399414l10.5499878-5.2800293 3.5599976-1.7800293 32 32z" fill="#fce82b"/></g></g></svg>